<?xml version="1.0" encoding="utf-8"?>
<!-- Generator: Adobe Illustrator 21.0.2, SVG Export Plug-In . SVG Version: 6.00 Build 0)  -->
<svg version="1.1" id="Layer_1" xmlns="http://www.w3.org/2000/svg" xmlns:xlink="http://www.w3.org/1999/xlink" x="0px" y="0px"
	 width="298.6px" height="512px" viewBox="0 0 298.6 512" style="enable-background:new 0 0 298.6 512;" xml:space="preserve">
<style type="text/css">
	.st0{fill:#FFFFFF;}
</style>
<g>
	<path class="st0" d="M0,256c0-4.1,2.1-8.7,5.1-11.8L244.2,5.1C247.3,2.1,251.9,0,256,0c4.1,0,8.7,2.1,11.8,5.1l25.7,25.7
		c3.1,3.1,5.1,7.7,5.1,11.8s-2.1,8.7-5.1,11.8L91.8,256l201.6,201.6c3.1,3.1,5.1,7.7,5.1,11.8c0,4.6-2.1,8.7-5.1,11.8l-25.7,25.7
		c-3.1,3.1-7.7,5.1-11.8,5.1s-8.7-2.1-11.8-5.1L5.1,267.8C2.1,264.7,0,260.1,0,256z"/>
</g>
</svg>
