<?xml version="1.0" encoding="utf-8"?>
<!-- Generator: Adobe Illustrator 21.0.2, SVG Export Plug-In . SVG Version: 6.00 Build 0)  -->
<svg version="1.1" id="Layer_1" xmlns="http://www.w3.org/2000/svg" xmlns:xlink="http://www.w3.org/1999/xlink" x="0px" y="0px"
	 width="298.6px" height="512px" viewBox="0 0 298.6 512" style="enable-background:new 0 0 298.6 512;" xml:space="preserve">
<style type="text/css">
	.st0{fill:#FFFFFF;}
</style>
<g>
	<path class="st0" d="M293.5,267.8L54.4,506.9c-3.1,3.1-7.7,5.1-11.8,5.1s-8.7-2.1-11.8-5.1L5.1,481.2C2.1,478.1,0,474,0,469.4
		c0-4.1,2.1-8.7,5.1-11.8L206.7,256L5.1,54.4C2.1,51.3,0,46.7,0,42.6s2.1-8.7,5.1-11.8L30.8,5.1C33.9,2.1,38.5,0,42.6,0
		s8.7,2.1,11.8,5.1l239.1,239.1c3.1,3.1,5.1,7.7,5.1,11.8S296.5,264.7,293.5,267.8z"/>
</g>
</svg>
