<svg xmlns="http://www.w3.org/2000/svg" viewBox="0 0 894.54 104.59"><defs><style>.cls-1{fill:#fff;}</style></defs><title>fellowship</title><g id="Layer_2" data-name="Layer 2"><g id="web"><g id="home"><path d="M327.73,56c1.69-4.07,3.2-7.43,4.44-10.88a4.23,4.23,0,0,0-.55-2.92q-4.32-8.33-8.85-16.55A25.09,25.09,0,0,0,320,22.93a.91.91,0,0,1,.48-1.47,32.42,32.42,0,0,1,11.77,0,.76.76,0,0,1,.47,1.12c-1.23,2.19.34,4.08,1.29,6.06.84,1.74,1.74,3.45,2.8,5.55A16.44,16.44,0,0,0,338,32.28c.88-2.12,1.71-4.26,2.61-6.51a.66.66,0,0,0-.15-.71,6.71,6.71,0,0,1-1.06-1.19c-.85-1.4-.42-2.69,1.19-2.77,3.82-.19,7.66-.11,11.49-.05a1.68,1.68,0,0,1,1.23,1c.13.42-.17,1.41-.44,1.47-2.81.62-3.19,3.21-4.15,5.19-2.37,4.9-4.54,9.9-6.89,15.08l6.77,12.48c5.39-10,9.38-19.84,14.16-29.58a.91.91,0,0,0-.16-1c-.49-.51-1-1-1.4-1.53-1.14-1.41-.72-2.92,1.05-3,4.05-.2,8.12-.11,12.18,0,1.51.13,1.46,2.19.4,2.65-2.17.94-2.92,2.78-3.78,4.72-1.22,2.76-2.7,5.4-4,8.12q-8.12,16.94-16.2,33.91l-.3.6a1.4,1.4,0,0,1-.91.73c-1.62.4-2.66-.28-3.45-1.82-2.74-5.37-5.54-10.7-8.49-16.39L332,65.86c-.78,1.68-1.47,3.42-2.36,5-1.24,2.26-2.87,2.31-4.11.08-2.13-3.85-4.12-7.78-6.14-11.7q-7.64-14.81-15.26-29.64A22.76,22.76,0,0,0,303,27.47,33.62,33.62,0,0,0,299.6,23c-.52-1.18.19-1.94,1.38-2,3.41-.08,6.82,0,10,0a1,1,0,0,1,1,.77c.42,1.85.32,5.14,2.33,8.52Q319.68,41,325.1,51.63C325.72,52.85,326.51,54,327.73,56Z"/><path d="M756.15,56.07a1.53,1.53,0,0,0-1.67.86c-1,2.16-.72,4.27-.71,6.35,0,4,.44,8.19-.39,12.06-1.1,5.14-4.1,10.07-9,11.95-4,1.52-1.83-1.09-1.43-1.49a6.74,6.74,0,0,0,1.87-6c-.17-1.38-.13-2.78-.2-4.17-.44-8-.92-16-1.32-23.94-.12-2.43-.6-17.27-.76-22.25a2.94,2.94,0,0,0-2.61-3.13c-.76-.18-1.5-.43-2.26-.68a1.5,1.5,0,0,1-1-1.7,1.67,1.67,0,0,1,2.23-1.39c7.54,1.64,20.63-1.73,30.37,1.12,11.08,3.23,15.11,16,6.38,25.19-1.25,1.32-6,4.35-4.07,4.76,4.18,1.76,5.82,5.8,8.23,9.12,1.21,1.67,7.43,9.91,9.54,12.2a44.4,44.4,0,0,0,9.82,8.19A80.13,80.13,0,0,0,807,86.75h0a1.51,1.51,0,0,1-.38,2.85,19.63,19.63,0,0,1-8.58-.7c-8.3-2.1-14.83-6.81-20.25-13.29-4.3-5.14-8.7-10.21-13-15.32C762.48,57.63,759.45,56.71,756.15,56.07Zm-3.72-24.68a1.71,1.71,0,0,0,0,.27c.33,4.89.84,9.78,1.21,14.67.13,1.72.95,2.56,2.64,2.48,2.07-.1,4.15-.2,6.2-.45,4.89-.59,8.32-5.62,8.38-9.94a2.19,2.19,0,0,0,0-.23C769.86,27.52,753.34,21.71,752.42,31.39Z"/><path d="M491.64,70.94c0,1.65,0,2.91,0,4.17.19,4.27.35,8.55.65,12.81.15,7.74-6.6,13.14-10.4,12.66-1.25-.16-.55-1.72-.26-2.75a15.66,15.66,0,0,0,.77-4.38q-.27-16.67-.72-33.35-.27-10.76-.71-21.51c-.1-2.42-.51-4.82-.67-7.24-.1-1.52-1.26-1.69-2.37-2.17a1.32,1.32,0,0,1-.67-1.78,1.55,1.55,0,0,1,.59-.72c2.66-1.41,5.35-2.8,8.14-3.93,3-1.24,4.8.1,4.89,3.49,0,1.25,0,2.51,0,4.4,2.6-1.93,12.8-9.43,20-8.93A8.23,8.23,0,0,1,517.35,26a31.14,31.14,0,0,1,4.27,14.84c.5,10.85-4.13,19.51-11.2,27.15-4.62,5-10.24,6.45-16.7,3.87C493.19,71.61,492.67,71.38,491.64,70.94Zm20.79-24a33.77,33.77,0,0,0-3.84-14.5c-1.6-3.15-5.3-3.95-8.29-1.82-2.35,1.67-4.41,3.73-6.73,5.43-2.64,1.92-2.88,4.51-2.63,7.41.29,3.33.47,6.68.64,10,.09,1.85-.13,3.73.1,5.56.32,2.53.86,5,3.34,6.54,3.5,2.12,6.64,1.86,9.82-1.13C509.93,59.65,512.15,53.59,512.42,46.92Z"/><path d="M414.1,73.82A1,1,0,0,1,413,72.75,231,231,0,0,0,412.81,43c-.62-9.86.5-19.79-.87-29.8a.7.7,0,0,0-.65-.6l-2.12-.11a1.26,1.26,0,0,1-1.11-.8c-.38-1,.06-1.83,1.05-2.53,3-2.15,6-4.35,9.06-6.45,1.47-1,2.63-.42,3,1.39a11.22,11.22,0,0,1,.08,1.74c.23,8.69.79,26.51.92,27.12a33,33,0,0,1,2.48-3c2.77-2.61,5.27-5.72,8.49-7.59,6.43-3.73,14.31-1.17,16.87,6.48,4.74,14.1,3.12,27.4-5,39.86a24.49,24.49,0,0,1-4,4.36c-2.1,1.7-3.61-.94-2.27-3.82a42.73,42.73,0,0,0,5.06-20.39c-.94-18.74-6.4-21.37-11.23-19.41C422.44,35.06,421.87,47.66,422,51.57s.63,12.59.63,13c0,1.48.68,3.51-.33,4.36C419.93,70.87,417.72,73.29,414.1,73.82Z"/><path d="M882.26,49.93c-2.2-.18-4.44-.17-6.39-.38a1.18,1.18,0,0,1-1.05-1.24v0a.93.93,0,0,1,.89-.88A142.28,142.28,0,0,1,891,47.3a1,1,0,0,1,1,.86,12.88,12.88,0,0,1,.31,2.21c.05,7.55.23,15.1,0,22.64a39,39,0,0,1-6.89,17.91c-2.54,4-5.48,7.8-9.85,10a36.12,36.12,0,0,1-7,2.55,51.56,51.56,0,0,1-6.85,1.1c-.93.12-2,0-2-1.29s.95-1.32,1.91-1.45a20.58,20.58,0,0,0,16-10.83,51.61,51.61,0,0,0,6.07-18.92c0-.31,0-2-3.56-.89a24.92,24.92,0,0,1-11.25,1.09,18.29,18.29,0,0,1-13-8.35,25.49,25.49,0,0,1,7.23-36,29.91,29.91,0,0,1,15.31-5.15,21.58,21.58,0,0,1,8.78,1.72c4,1.6,6.59,7.47,2.16,11a20,20,0,0,1-3.61,2.62,2.65,2.65,0,0,1-2.44-.46c-.36-.36-.09-1.77.25-2.31,5.93-9.36-18.43-12-24.52,7.29-.84,6,1.11,11.44,4.38,16.44,2.92,4.47,11.21,7.56,16.06,5.83,5.47-2,3.93-11.7,3.69-14.1A1,1,0,0,0,882.26,49.93Z"/><path d="M175.58,3v8.21c-1.61,1.17-2.54-.16-3.71-1.37a4.94,4.94,0,0,0-3.66-1.68c-7.06-.15-14.52.52-21.58.32a19.42,19.42,0,0,0-2.44.06c-1.6.16-2.6.92-2.52,2.68,0,.35,0,.7,0,1,.31,4.5.63,9,1,13.89,6.11.82,12.36-.17,18.63.54,1.22,2.94-1.44,4.17-2.57,5.9-.88,1.36-2.37,1.06-3.7.17a3.65,3.65,0,0,0-2-.61c-3.35-.06-6.7,0-10.42,0-.1,1.64.26,18,.41,24.82.1,4.64.17,5.55,1.77,9.38a1.25,1.25,0,0,1-.07,1.1c-2.58,4.53-5.23,9.17-7.85,13.82-.54,1-1.22,2.06-2.35,1.43a3.41,3.41,0,0,1-1.26-2.53c-.14-4.87-1.26-57.49-1.55-65.36A40.69,40.69,0,0,0,131,8.3a3,3,0,0,0-1.73-1.79c-1.28-.43-3.13-.16-2.74-2.24.35-1.87,2.13-1.44,3.46-1.46q16.69-.37,33.37-.68c3.65-.06,7.3,0,11.33,0A.93.93,0,0,1,175.58,3Z"/><path d="M378.11,58.81a1.34,1.34,0,0,1,1.77.69,20.76,20.76,0,0,0,.9,1.88,6.29,6.29,0,0,0,4.59,3.4c5.05.77,9.34-1,13.14-4.18,3.27-2.75,2-5-1.22-6.66a48.07,48.07,0,0,0-6.54-2.29c-5-1.71-10.32-2.89-14.7-6.12a9.92,9.92,0,0,1-2.88-3.32c-2.22-4.35-1.06-10.7,2.2-14.26,5.93-6.46,13.46-7.78,21.64-6.75,2.84.36,5.7.91,8.13,2.77s2.75,2.39.86,5a47.54,47.54,0,0,1-4.5,5.28,1.92,1.92,0,0,1-3.3-.81,1.32,1.32,0,0,1-.07-.34c-.14-1.81.25-3.8-1.81-4.93a12.12,12.12,0,0,0-8.41-1.42,11.93,11.93,0,0,0-4.73,2c-3.5,2.67-3.25,6.36.68,8.25,3.43,1.65,7.13,2.71,10.69,4.09,4.07,1.58,8.38,2.77,11.24,6.5,5,6.48,1,15.71-3.05,18.92-6.35,5.32-14.11,6.21-21.93,5.23a26.84,26.84,0,0,1-8.12-2.92c-2.14-1-2.15-2.36-.58-4.16C373.55,63,377.46,59.09,378.11,58.81Z"/><path d="M172.43,43c1.49.07,2.73.17,4,.18,7.43,0,14.86.06,22.29,0,2,0,3.46.43,3.39,3.32-1.9,1.06-4,2.26-6.1,3.36a2.65,2.65,0,0,1-3.21-.44,4.42,4.42,0,0,0-2.33-1.19c-5.08-.32-10.16-.51-15.25-.71a17,17,0,0,0-2.42.25c-2,4.88,2,21.49,19.43,19.26,3.09-.94,6.11-2.12,9.18-3.14a5.69,5.69,0,0,1,.94-.21,1.65,1.65,0,0,1,1.75,2.32,3.36,3.36,0,0,1-.86,1,18.38,18.38,0,0,1-3.47,2.25,30.51,30.51,0,0,1-21.61,2.36c-6.74-1.63-15.07-10.49-15.61-19.09-2.22-34.69,32.28-34.46,39.22-28.08a16.64,16.64,0,0,1,2.3,2.09,2.85,2.85,0,0,1-1.23,4.79c-1.5.57-3.06,1-4.72,1.5-.55-.77-1-1.39-1.45-2A11.06,11.06,0,0,0,180,29,23.27,23.27,0,0,0,172.43,43Z"/><path d="M832.11,73.46a.68.68,0,0,1,.05-.69,8.59,8.59,0,0,1,1-1.25,17.41,17.41,0,0,0,5.05-9.72c5.56-22.86-4.75-32.5-11.49-32.67-2.93-.07-8.75,3.71-8.83,8.21.1,9.73.19,19.24.46,29,0,1.15.66,2.49.73,3.64.12,1.87-.36,2.43-2.19,2.32s-4-.11-5.77-.26a.67.67,0,0,1-.61-.64l-2-43.35a.67.67,0,0,1,.21-.53c1-.94,2.15-2.07,3.39-3.1,1.07-.9,2.22-1.72,3.44-2.62a.68.68,0,0,1,1,.15c1.26,1.94,0,4.46,1.08,6.51a.68.68,0,0,0,.92.26c.35-.19.58-.51.91-.61,41.6-12.38,23,41.47,15.88,44.79a15.92,15.92,0,0,1-2.34,1,.68.68,0,0,1-.84-.33Z"/><path d="M300.15,32.88c-3.55-6.69-10.1-11.55-18.89-11.35-11.38.26-19.58,9-20.9,15.84-1.09,5.64-.32,11.32,3.24,15.94,5.54,7.2,12.93,9.88,22.1,8.3C299.46,59.24,305.62,44.08,300.15,32.88Zm-9.83,18.38a15.29,15.29,0,0,1-5.12,5.5,6.85,6.85,0,0,1-7,.42c-5.68-2.69-7.7-7.67-8.33-13.49a13.54,13.54,0,0,1,0-1.73A17,17,0,0,1,276,27.81c3.52-3.14,7-3,10.61-.1C293,32.73,294.42,44.35,290.32,51.26Z"/><path d="M65,72.36a1.35,1.35,0,0,1-1.24-1.7,10.91,10.91,0,0,1,.66-1.92A27.7,27.7,0,0,0,66.14,48.8c-1.91-7-3.94-7.69-10.79-3.17-8.26,6.16-5.87,4.94-5.3,14.43a13.08,13.08,0,0,1,.18,3.46c.05,5.87-.92,7.22-6.8,9.53-.18-.13-.51-.25-.52-.39-.41-4.58-1.76-30.61-1.71-35.13,0-2.17.06-5.14.06-7.3A1.38,1.38,0,0,0,40.59,29c-.74-.46-1.48.65-2.14-.5.36-2.44,5-7.35,9.28-6.72a1.07,1.07,0,0,1,.89,1l.48,22.7c3.37-2.62,6.28-5,9.34-7.22,5-3.57,11.85-2.64,15,4.77,3.74,8.9,1.2,16.69-3.23,24.31a20.64,20.64,0,0,1-2.44,3.31C67,71.53,66.3,72.41,65,72.36Z"/><path d="M272.56,63.62a1.17,1.17,0,0,1,1.29,1c.42,5.23-9.52,8.5-14.94,8.11-4.63.08-9.08-.12-13.91-.08a1.41,1.41,0,0,1-1.42-1.36c-.18-7.12-.78-39.2-1-44.22-.13-3.19-.11-3.19-3.11-4.53a1.67,1.67,0,0,1,1-2.53c2.45-1,4.91-2.08,7.42-3,1.64-.58,2.69.06,3,1.88a45.49,45.49,0,0,1,.83,6.88c.31,11.82.51,23.65.76,35.47a10.25,10.25,0,0,0,.16,2.77c1.05,3.41,9.36,4,17.76.12A6.23,6.23,0,0,1,272.56,63.62Z"/><path d="M558.46,35.36c.16,0,17.69-.87,18.79,19.14a18,18,0,0,1-18.15,18.32c-9.81.18-18.42-8.51-18.36-18.42C540.79,44.74,546.78,36.63,558.46,35.36Zm-9,18.69c0,4.44.6,7.39,2.74,10.58,2.84,4.23,7.95,6.26,12.2,1.71,5.73-6.13,5.88-16.16.86-22.74-2.9-3.8-6.86-4.42-10.27-1.85a9,9,0,0,0-2.41,2.49C550.74,47.37,549,50.56,549.44,54.05Z"/><path d="M242.84,64.3c0-1.33-1.95-1-3.08-.3-7.84,4.56-17.78,4.21-17.93-.81-.25-8.11-.44-16.22-.7-24.32-.2-6-.41-12-.76-18-.18-3.18-1.29-3.91-4.3-3a43.32,43.32,0,0,0-5.82,2.27,3.59,3.59,0,0,0-1.1,1,2.12,2.12,0,0,0,0,1.69,1,1,0,0,0,.27.25,7.17,7.17,0,0,1,.69.35l.21.09a.51.51,0,0,1,.21.18A3.32,3.32,0,0,1,212,26.5c.14,5.41.75,37.31.93,44.39a1.64,1.64,0,0,0,1.4,1.58,88.17,88.17,0,0,0,18.89.72C239,72.8,242.86,68,242.84,64.3Z"/><path d="M579,36.81c6.06-.68,21.37-.76,26.6-.14a1.16,1.16,0,0,1,1,.88,14.27,14.27,0,0,1,.58,3.34c0,2.3-2.15,3.39-3.81,1.8a5.58,5.58,0,0,0-4.41-1.42c-2.79,0-5.57,0-8.36,0-1.86,0-2.79.75-2.81,2.67-.08,6.73-.63,7,6.33,7,.61,0,1.22,0,1.83,0,1.15,0,2.57,0,2.73,1.39A3.82,3.82,0,0,1,597,56a1.92,1.92,0,0,1-1.74.22,18.55,18.55,0,0,0-3.1-.94,14.64,14.64,0,0,0-2.94-.06,1,1,0,0,0-1,1c-.16,3.69-.12,16.6.27,19.39a5.13,5.13,0,0,1-.43,2.84,66.48,66.48,0,0,1-4.51,6.43,2.43,2.43,0,0,1-2,.78c-.59-.16-1.56-1.19-1.56-3.77-.22-12.4-.48-24.8-.63-37.2,0-2.12.08-4.21-1.2-6.09A1.11,1.11,0,0,1,579,36.81Z"/><path d="M103.66,46a1.49,1.49,0,0,1-1.67-.74c-1.83-3.37-4.43-5.06-8.17-4.56-4.37.58-7.24,3.65-8.77,9.33a1.23,1.23,0,0,0,1,1.54c2.85.37,5.72,0,8.55,0,3.18.05,6.35,0,9.48,0a.91.91,0,0,1,.8.49c.72,1.38.71,2.58-.52,3.42-1.69,1.16-3.13,3.42-5.77,1.88C94.49,55,90.22,56.71,86,56.6a1,1,0,0,0-1,1.07,11.59,11.59,0,0,0,15.1,10.17c1.7-.48,3.37-1.17,5.24-.79a1.65,1.65,0,0,1,1.35,1.51,2.08,2.08,0,0,1-1.61,2c-8.5,3.18-21.39,4.56-26-6.77-6.35-15.53,9.54-32.21,26.14-25.18a7.51,7.51,0,0,1,1.65,1c2.91,2.24,2.62,4.44-.76,5.7A22.06,22.06,0,0,1,103.66,46Z"/><path d="M34.74,61.55c-2.7,4-6.54,5.78-10.87,6.65A10.86,10.86,0,0,1,11,59.85c-.88-3.55.44-6.69,1.84-9.69,2.78-6,5.87-8.86,13-8.15a46.15,46.15,0,0,1,5.4,1.22c.68.15,1.38.27,2.36.45a.38.38,0,0,0,.33-.36l.74-6.53v0a.79.79,0,0,0-.33-.13,23.44,23.44,0,0,0-3.57-.32c-3.46.16-6.86-.17-10.33,0-5.67.27-11.45,0-17.12.22a4.73,4.73,0,0,0-.69.06A3.73,3.73,0,0,0,.15,39.74C0,41.23-.33,43,1.17,43.88a6.36,6.36,0,0,0,3.53.46c.73-.06.81-1.91,1.56-2.18a15.73,15.73,0,0,1,5.22-.1.37.37,0,0,1,.06.43.32.32,0,0,1-.12.17h0a43.18,43.18,0,0,0-3.28,3.44c-1.34,1.73-3,3.43-3.64,5.43C.77,63.15,9,74.88,23.44,73.05a13.28,13.28,0,0,0,2.67-.62l.08,0a1.83,1.83,0,0,1,.46-.13,2.28,2.28,0,0,1,.38-.16l.1,0a14,14,0,0,0,3.55-2,4.07,4.07,0,0,0,.63-.42l1.4-1.13.09-.08.06-.05.16-.15,0,0a18.5,18.5,0,0,0,3.52-3.42,1.27,1.27,0,0,0,.25-.6C37.1,63.51,36.45,62.84,34.74,61.55Z"/><path d="M684.71,72.36a1.35,1.35,0,0,1-1.24-1.7,10.91,10.91,0,0,1,.66-1.92,27.7,27.7,0,0,0,1.74-19.94c-1.91-7-3.94-7.69-10.79-3.17-8.26,6.16-5.87,4.94-5.3,14.43a13.08,13.08,0,0,1,.18,3.46c.05,5.87-.92,7.22-6.8,9.53-.18-.13-.51-.25-.52-.39-.41-4.58-1.76-30.61-1.71-35.13,0-2.17.06-5.14.06-7.3a1.38,1.38,0,0,0-.66-1.17c-.74-.46-1.48.65-2.14-.5.36-2.44,5-7.35,9.28-6.72a1.07,1.07,0,0,1,.89,1l.48,22.7c3.37-2.62,6.28-5,9.34-7.22,5-3.57,11.85-2.64,15,4.77,3.74,8.9,1.2,16.69-3.23,24.31a20.64,20.64,0,0,1-2.44,3.31C686.76,71.53,686,72.41,684.71,72.36Z"/><path d="M723.4,46a1.49,1.49,0,0,1-1.67-.74c-1.83-3.37-4.43-5.06-8.17-4.56-4.37.58-7.24,3.65-8.77,9.33a1.23,1.23,0,0,0,1,1.54c2.85.37,5.72,0,8.55,0,3.18.05,6.35,0,9.48,0a.91.91,0,0,1,.8.49c.72,1.38.71,2.58-.52,3.42-1.69,1.16-3.13,3.42-5.77,1.88-4.14-2.42-8.41-.7-12.64-.81a1,1,0,0,0-1,1.07,11.59,11.59,0,0,0,15.1,10.17c1.7-.48,3.37-1.17,5.24-.79a1.65,1.65,0,0,1,1.35,1.51,2.08,2.08,0,0,1-1.61,2c-8.5,3.18-21.39,4.56-26-6.77-6.35-15.53,9.54-32.21,26.14-25.18a7.51,7.51,0,0,1,1.65,1c2.91,2.24,2.62,4.44-.76,5.7A22.06,22.06,0,0,1,723.4,46Z"/><path d="M654.47,61.55c-2.7,4-6.54,5.78-10.87,6.65a10.86,10.86,0,0,1-12.87-8.35c-.88-3.55.44-6.69,1.84-9.69,2.78-6,5.87-8.86,13-8.15a46.15,46.15,0,0,1,5.4,1.22c.68.15,1.38.27,2.36.45a.38.38,0,0,0,.33-.36l.74-6.53v0a.79.79,0,0,0-.33-.13,23.44,23.44,0,0,0-3.57-.32c-3.46.16-6.86-.17-10.33,0-5.67.27-11.45,0-17.12.22a4.73,4.73,0,0,0-.69.06,3.73,3.73,0,0,0-2.45,3.14c-.17,1.49-.48,3.26,1,4.14a6.36,6.36,0,0,0,3.53.46c.73-.06.81-1.91,1.56-2.18a15.73,15.73,0,0,1,5.22-.1.37.37,0,0,1,.06.43.32.32,0,0,1-.12.17h0a43.18,43.18,0,0,0-3.28,3.44c-1.34,1.73-3,3.43-3.64,5.43-3.73,11.61,4.49,23.34,19,21.51a13.28,13.28,0,0,0,2.67-.62l.08,0a1.83,1.83,0,0,1,.46-.13,2.28,2.28,0,0,1,.38-.16l.1,0a14,14,0,0,0,3.55-2,4.07,4.07,0,0,0,.63-.42l1.4-1.13.09-.08.06-.05.16-.15,0,0a18.5,18.5,0,0,0,3.52-3.42,1.27,1.27,0,0,0,.25-.6C656.83,63.51,656.18,62.84,654.47,61.55Z"/><path d="M469.87,73.11a50.22,50.22,0,0,1-8.75,0,1.35,1.35,0,0,1-1.19-1.67c1.87-7.39.42-33.37.24-39.15,0-1.56-.5-2.53-2.21-3-1.51-.42-1.79-1.92-.57-2.51,3.31-1.62,6.74-3,10.15-4.38a.43.43,0,0,1,.22,0,1.58,1.58,0,0,1,1.31,1.45c.09.9.18,1.84.18,2.78q0,18.45,0,36.89c0,2.56-.15,5.1,1.66,7.28a1.48,1.48,0,0,1,.2,1A1.4,1.4,0,0,1,469.87,73.11Z"/><path d="M788.56,27.31c2.81-1.44,5.34-3.06,8.42-4a.84.84,0,0,1,1.08.71c.32,3.28,1.21,6.17.52,9.31a28.44,28.44,0,0,0-.16,6.93c.09,2.65,1,20.91,1.21,27.39,0,1-.07,2-.15,3.19a.83.83,0,0,1-.83.77h-8a.83.83,0,0,1-.75-1.19c2.17-4.3.78-24,.64-29.55a70.63,70.63,0,0,0-.79-9,12.22,12.22,0,0,0-1.53-3.43A.84.84,0,0,1,788.56,27.31Z"/><path class="cls-1" d="M329.82,54c1.69-4.07,3.2-7.43,4.44-10.88a4.23,4.23,0,0,0-.55-2.92q-4.32-8.33-8.85-16.55a25.09,25.09,0,0,0-2.75-2.76.91.91,0,0,1,.48-1.47,32.42,32.42,0,0,1,11.77,0,.76.76,0,0,1,.47,1.12c-1.23,2.19.34,4.08,1.29,6.06.84,1.74,1.74,3.45,2.8,5.55a16.44,16.44,0,0,0,1.18-1.89c.88-2.12,1.71-4.26,2.61-6.51a.66.66,0,0,0-.15-.71,6.71,6.71,0,0,1-1.06-1.19c-.85-1.4-.42-2.69,1.19-2.77,3.82-.19,7.66-.11,11.49-.05a1.68,1.68,0,0,1,1.23,1c.13.42-.17,1.41-.44,1.47-2.81.62-3.19,3.21-4.15,5.19-2.37,4.9-4.54,9.9-6.89,15.08l6.77,12.48c5.39-10,9.38-19.84,14.16-29.58a.91.91,0,0,0-.16-1c-.49-.51-1-1-1.4-1.53-1.14-1.41-.72-2.92,1.05-3,4.05-.2,8.12-.11,12.18,0,1.51.13,1.46,2.19.4,2.65-2.17.94-2.92,2.78-3.78,4.72-1.22,2.76-2.7,5.4-4,8.12Q361,51.37,352.95,68.34l-.3.6a1.4,1.4,0,0,1-.91.73c-1.62.4-2.66-.28-3.45-1.82-2.74-5.37-5.54-10.7-8.49-16.39l-5.72,12.31c-.78,1.68-1.47,3.42-2.36,5-1.24,2.26-2.87,2.31-4.11.08-2.13-3.85-4.12-7.78-6.14-11.7q-7.64-14.81-15.26-29.64a22.76,22.76,0,0,0-1.11-2.17,33.62,33.62,0,0,0-3.42-4.46c-.52-1.18.19-1.94,1.38-2,3.41-.08,6.82,0,10,0a1,1,0,0,1,1,.77c.42,1.85.32,5.14,2.33,8.52q5.36,10.67,10.78,21.32C327.81,50.76,328.6,51.91,329.82,54Z"/><path class="cls-1" d="M758.24,54a1.53,1.53,0,0,0-1.67.86c-1,2.16-.72,4.27-.71,6.35,0,4,.44,8.19-.39,12.06-1.1,5.14-4.1,10.07-9,11.95-4,1.52-1.83-1.09-1.43-1.49a6.74,6.74,0,0,0,1.87-6c-.17-1.38-.13-2.78-.2-4.17-.44-8-.92-16-1.32-23.94-.12-2.43-.6-17.27-.76-22.25A2.94,2.94,0,0,0,742,24.18c-.76-.18-1.5-.43-2.26-.68a1.5,1.5,0,0,1-1-1.7A1.67,1.67,0,0,1,741,20.42c7.54,1.64,20.63-1.73,30.37,1.12,11.08,3.23,15.11,16,6.38,25.19-1.25,1.32-6,4.35-4.07,4.76,4.18,1.76,5.82,5.8,8.23,9.12,1.21,1.67,7.43,9.91,9.54,12.2A44.4,44.4,0,0,0,801.25,81a80.13,80.13,0,0,0,7.81,3.66h0a1.51,1.51,0,0,1-.38,2.85,19.63,19.63,0,0,1-8.58-.7c-8.3-2.1-14.83-6.81-20.25-13.29-4.3-5.14-8.7-10.21-13-15.32C764.57,55.54,761.54,54.62,758.24,54ZM754.52,29.3a1.71,1.71,0,0,0,0,.27c.33,4.89.84,9.78,1.21,14.67.13,1.72.95,2.56,2.64,2.48,2.07-.1,4.15-.2,6.2-.45,4.89-.59,8.32-5.62,8.38-9.94a2.19,2.19,0,0,0,0-.23C772,25.43,755.43,19.62,754.52,29.3Z"/><path class="cls-1" d="M493.73,68.85c0,1.65,0,2.91,0,4.17.19,4.27.35,8.55.65,12.81.15,7.74-6.6,13.14-10.4,12.66-1.25-.16-.55-1.72-.26-2.75a15.66,15.66,0,0,0,.77-4.38q-.27-16.67-.72-33.35-.27-10.76-.71-21.51c-.1-2.42-.51-4.82-.67-7.24-.1-1.52-1.26-1.69-2.37-2.17a1.32,1.32,0,0,1-.67-1.78,1.55,1.55,0,0,1,.59-.72c2.66-1.41,5.35-2.8,8.14-3.93,3-1.24,4.8.1,4.89,3.49,0,1.25,0,2.51,0,4.4,2.6-1.93,12.8-9.43,20-8.93a8.23,8.23,0,0,1,6.45,4.26,31.14,31.14,0,0,1,4.27,14.84c.5,10.85-4.13,19.51-11.2,27.15-4.62,5-10.24,6.45-16.7,3.87C495.28,69.52,494.76,69.29,493.73,68.85Zm20.79-24a33.77,33.77,0,0,0-3.84-14.5c-1.6-3.15-5.3-3.95-8.29-1.82-2.35,1.67-4.41,3.73-6.73,5.43-2.64,1.92-2.88,4.51-2.63,7.41.29,3.33.47,6.68.64,10,.09,1.85-.13,3.73.1,5.56.32,2.53.86,5,3.34,6.54,3.5,2.12,6.64,1.86,9.82-1.13C512,57.56,514.24,51.5,514.52,44.83Z"/><path class="cls-1" d="M416.19,71.73a1,1,0,0,1-1.12-1.07,231,231,0,0,0-.17-29.72c-.62-9.86.5-19.79-.87-29.8a.7.7,0,0,0-.65-.6l-2.12-.11a1.26,1.26,0,0,1-1.11-.8c-.38-1,.06-1.83,1.05-2.53,3-2.15,6-4.35,9.06-6.45,1.47-1,2.63-.42,3,1.39a11.22,11.22,0,0,1,.08,1.74c.23,8.69.79,26.51.92,27.12a33,33,0,0,1,2.48-3c2.77-2.61,5.27-5.72,8.49-7.59,6.43-3.73,14.31-1.17,16.87,6.48,4.74,14.1,3.12,27.4-5,39.86a24.49,24.49,0,0,1-4,4.36c-2.1,1.7-3.61-.94-2.27-3.82a42.73,42.73,0,0,0,5.06-20.39c-.94-18.74-6.4-21.37-11.23-19.41C424.53,33,424,45.57,424.06,49.48s.63,12.59.63,13c0,1.48.68,3.51-.33,4.36C422,68.78,419.81,71.2,416.19,71.73Z"/><path class="cls-1" d="M884.35,47.84c-2.2-.18-4.44-.17-6.39-.38a1.18,1.18,0,0,1-1.05-1.24v0a.93.93,0,0,1,.89-.88,142.28,142.28,0,0,1,15.32-.09,1,1,0,0,1,1,.86,12.88,12.88,0,0,1,.31,2.21c.05,7.55.23,15.1,0,22.64a39,39,0,0,1-6.89,17.91c-2.54,4-5.48,7.8-9.85,10a36.12,36.12,0,0,1-7,2.55,51.56,51.56,0,0,1-6.85,1.1c-.93.12-2,0-2-1.29s.95-1.32,1.91-1.45a20.58,20.58,0,0,0,16-10.83A51.61,51.61,0,0,0,885.77,70c0-.31,0-2-3.56-.89A24.92,24.92,0,0,1,871,70.19a18.29,18.29,0,0,1-13-8.35,25.49,25.49,0,0,1,7.23-36,29.91,29.91,0,0,1,15.31-5.15,21.58,21.58,0,0,1,8.78,1.72c4,1.6,6.59,7.47,2.16,11A20,20,0,0,1,887.81,36a2.65,2.65,0,0,1-2.44-.46c-.36-.36-.09-1.77.25-2.31,5.93-9.36-18.43-12-24.52,7.29-.84,6,1.11,11.44,4.38,16.44,2.92,4.47,11.21,7.56,16.06,5.83,5.47-2,3.93-11.7,3.69-14.1A1,1,0,0,0,884.35,47.84Z"/><path class="cls-1" d="M177.67.94V9.16c-1.61,1.17-2.54-.16-3.71-1.37a4.94,4.94,0,0,0-3.66-1.68c-7.06-.15-14.52.52-21.58.32a19.42,19.42,0,0,0-2.44.06c-1.6.16-2.6.92-2.52,2.68,0,.35,0,.7,0,1,.31,4.5.63,9,1,13.89,6.11.82,12.36-.17,18.63.54,1.22,2.94-1.44,4.17-2.57,5.9-.88,1.36-2.37,1.06-3.7.17a3.65,3.65,0,0,0-2-.61c-3.35-.06-6.7,0-10.42,0-.1,1.64.26,18,.41,24.82.1,4.64.17,5.55,1.77,9.38a1.25,1.25,0,0,1-.07,1.1c-2.58,4.53-5.23,9.17-7.85,13.82-.54,1-1.22,2.06-2.35,1.43a3.41,3.41,0,0,1-1.26-2.53c-.14-4.87-1.26-57.49-1.55-65.36a40.69,40.69,0,0,0-.76-6.54,3,3,0,0,0-1.73-1.79c-1.28-.43-3.13-.16-2.74-2.24C128.93.31,130.71.74,132,.71Q148.72.34,165.41,0c3.65-.06,7.3,0,11.33,0A.93.93,0,0,1,177.67.94Z"/><path class="cls-1" d="M380.2,56.72a1.34,1.34,0,0,1,1.77.69,20.76,20.76,0,0,0,.9,1.88,6.29,6.29,0,0,0,4.59,3.4c5.05.77,9.34-1,13.14-4.18,3.27-2.75,2-5-1.22-6.66a48.07,48.07,0,0,0-6.54-2.29c-5-1.71-10.32-2.89-14.7-6.12a9.92,9.92,0,0,1-2.88-3.32c-2.22-4.35-1.06-10.7,2.2-14.26,5.93-6.46,13.46-7.78,21.64-6.75,2.84.36,5.7.91,8.13,2.77s2.75,2.39.86,5a47.54,47.54,0,0,1-4.5,5.28,1.92,1.92,0,0,1-3.3-.81,1.32,1.32,0,0,1-.07-.34c-.14-1.81.25-3.8-1.81-4.93A12.12,12.12,0,0,0,390,24.69a11.93,11.93,0,0,0-4.73,2c-3.5,2.67-3.25,6.36.68,8.25,3.43,1.65,7.13,2.71,10.69,4.09,4.07,1.58,8.38,2.77,11.24,6.5,5,6.48,1,15.71-3.05,18.92-6.35,5.32-14.11,6.21-21.93,5.23a26.84,26.84,0,0,1-8.12-2.92c-2.14-1-2.15-2.36-.58-4.16C375.65,61,379.55,57,380.2,56.72Z"/><path class="cls-1" d="M174.52,40.93c1.49.07,2.73.17,4,.18,7.43,0,14.86.06,22.29,0,2,0,3.46.43,3.39,3.32-1.9,1.06-4,2.26-6.1,3.36a2.65,2.65,0,0,1-3.21-.44,4.42,4.42,0,0,0-2.33-1.19c-5.08-.32-10.16-.51-15.25-.71a17,17,0,0,0-2.42.25c-2,4.88,2,21.49,19.43,19.26,3.09-.94,6.11-2.12,9.18-3.14a5.69,5.69,0,0,1,.94-.21A1.65,1.65,0,0,1,206.16,64a3.36,3.36,0,0,1-.86,1,18.38,18.38,0,0,1-3.47,2.25,30.51,30.51,0,0,1-21.61,2.36C173.48,68,165.15,59.1,164.61,50.5,162.38,15.82,196.89,16,203.83,22.43a16.64,16.64,0,0,1,2.3,2.09,2.85,2.85,0,0,1-1.23,4.79c-1.5.57-3.06,1-4.72,1.5-.55-.77-1-1.39-1.45-2A11.06,11.06,0,0,0,182,26.89,23.27,23.27,0,0,0,174.52,40.93Z"/><path class="cls-1" d="M834.2,71.37a.68.68,0,0,1,.05-.69,8.59,8.59,0,0,1,1-1.25,17.41,17.41,0,0,0,5.05-9.72c5.56-22.86-4.75-32.5-11.49-32.67-2.93-.07-8.75,3.71-8.83,8.21.1,9.73.19,19.24.46,29,0,1.15.66,2.49.73,3.64.12,1.87-.36,2.43-2.19,2.32s-4-.11-5.77-.26a.67.67,0,0,1-.61-.64l-2-43.35a.67.67,0,0,1,.21-.53c1-.94,2.15-2.07,3.39-3.1,1.07-.9,2.22-1.72,3.44-2.62a.68.68,0,0,1,1,.15c1.26,1.94,0,4.46,1.08,6.51a.68.68,0,0,0,.92.26c.35-.19.58-.51.91-.61,41.6-12.38,23,41.47,15.88,44.79a15.92,15.92,0,0,1-2.34,1,.68.68,0,0,1-.84-.33Z"/><path class="cls-1" d="M67.07,70.27a1.35,1.35,0,0,1-1.24-1.7,10.91,10.91,0,0,1,.66-1.92,27.7,27.7,0,0,0,1.74-19.94c-1.91-7-3.94-7.69-10.79-3.17-8.26,6.16-5.87,4.94-5.3,14.43a13.08,13.08,0,0,1,.18,3.46c.05,5.87-.92,7.22-6.8,9.53-.18-.13-.51-.25-.52-.39C44.58,66,43.23,40,43.28,35.43c0-2.17.06-5.14.06-7.3A1.38,1.38,0,0,0,42.68,27c-.74-.46-1.48.65-2.14-.5.36-2.44,5-7.35,9.28-6.72a1.07,1.07,0,0,1,.89,1l.48,22.7c3.37-2.62,6.28-5,9.34-7.22,5-3.57,11.85-2.64,15,4.77,3.74,8.9,1.2,16.69-3.23,24.31a20.64,20.64,0,0,1-2.44,3.31C69.12,69.44,68.39,70.31,67.07,70.27Z"/><path class="cls-1" d="M274.65,61.53a1.17,1.17,0,0,1,1.29,1c.42,5.23-9.52,8.5-14.94,8.11-4.63.08-9.08-.12-13.91-.08a1.41,1.41,0,0,1-1.42-1.36c-.18-7.12-.78-39.2-1-44.22-.13-3.19-.11-3.19-3.11-4.53a1.67,1.67,0,0,1,1-2.53c2.45-1,4.91-2.08,7.42-3,1.64-.58,2.69.06,3,1.88a45.49,45.49,0,0,1,.83,6.88c.31,11.82.51,23.65.76,35.47a10.25,10.25,0,0,0,.16,2.77c1.05,3.41,9.36,4,17.76.12A6.23,6.23,0,0,1,274.65,61.53Z"/><path class="cls-1" d="M560.55,33.27c.16,0,17.69-.87,18.79,19.14a18,18,0,0,1-18.15,18.32c-9.81.18-18.42-8.51-18.36-18.42C542.88,42.65,548.88,34.54,560.55,33.27Zm-9,18.69c0,4.44.6,7.39,2.74,10.58,2.84,4.23,7.95,6.26,12.2,1.71,5.73-6.13,5.88-16.16.86-22.74-2.9-3.8-6.86-4.42-10.27-1.85a9,9,0,0,0-2.41,2.49C552.83,45.28,551.11,48.47,551.53,52Z"/><path class="cls-1" d="M244.93,62.21c0-1.33-1.95-1-3.08-.3-7.84,4.56-17.78,4.21-17.93-.81-.25-8.11-.44-16.22-.7-24.32-.2-6-.41-12-.76-18-.18-3.18-1.29-3.91-4.3-3A43.32,43.32,0,0,0,212.35,18a3.59,3.59,0,0,0-1.1,1,2.12,2.12,0,0,0,0,1.69,1,1,0,0,0,.27.25,7.17,7.17,0,0,1,.69.35l.21.09a.51.51,0,0,1,.21.18,3.32,3.32,0,0,1,1.45,2.83c.14,5.41.75,37.31.93,44.39a1.64,1.64,0,0,0,1.4,1.58,88.17,88.17,0,0,0,18.89.72C241.1,70.71,245,65.95,244.93,62.21Z"/><path class="cls-1" d="M581.07,34.72c6.06-.68,21.37-.76,26.6-.14a1.16,1.16,0,0,1,1,.88,14.27,14.27,0,0,1,.58,3.34c0,2.3-2.15,3.39-3.81,1.8A5.58,5.58,0,0,0,601,39.18c-2.79,0-5.57,0-8.36,0-1.86,0-2.79.75-2.81,2.67-.08,6.73-.63,7,6.33,7,.61,0,1.22,0,1.83,0,1.15,0,2.57,0,2.73,1.39a3.82,3.82,0,0,1-1.61,3.61,1.92,1.92,0,0,1-1.74.22,18.55,18.55,0,0,0-3.1-.94,14.64,14.64,0,0,0-2.94-.06,1,1,0,0,0-1,1c-.16,3.69-.12,16.6.27,19.39a5.13,5.13,0,0,1-.43,2.84,66.48,66.48,0,0,1-4.51,6.43,2.43,2.43,0,0,1-2,.78c-.59-.16-1.56-1.19-1.56-3.77-.22-12.4-.48-24.8-.63-37.2,0-2.12.08-4.21-1.2-6.09A1.11,1.11,0,0,1,581.07,34.72Z"/><path class="cls-1" d="M105.75,43.91a1.49,1.49,0,0,1-1.67-.74c-1.83-3.37-4.43-5.06-8.17-4.56-4.37.58-7.24,3.65-8.77,9.33a1.23,1.23,0,0,0,1,1.54c2.85.37,5.72,0,8.55,0,3.18.05,6.35,0,9.48,0a.91.91,0,0,1,.8.49c.72,1.38.71,2.58-.52,3.42-1.69,1.16-3.13,3.42-5.77,1.88-4.14-2.42-8.41-.7-12.64-.81a1,1,0,0,0-1,1.07,11.59,11.59,0,0,0,15.1,10.17c1.7-.48,3.37-1.17,5.24-.79a1.65,1.65,0,0,1,1.35,1.51,2.08,2.08,0,0,1-1.61,2c-8.5,3.18-21.39,4.56-26-6.77-6.35-15.53,9.54-32.21,26.14-25.18a7.51,7.51,0,0,1,1.65,1c2.91,2.24,2.62,4.44-.76,5.7A22.06,22.06,0,0,1,105.75,43.91Z"/><path class="cls-1" d="M36.83,59.46c-2.7,4-6.54,5.78-10.87,6.65A10.86,10.86,0,0,1,13.1,57.76c-.88-3.55.44-6.69,1.84-9.69,2.78-6,5.87-8.86,13-8.15a46.15,46.15,0,0,1,5.4,1.22c.68.15,1.38.27,2.36.45a.38.38,0,0,0,.33-.36l.74-6.53v0a.79.79,0,0,0-.33-.13,23.44,23.44,0,0,0-3.57-.32c-3.46.16-6.86-.17-10.33,0-5.67.27-11.45,0-17.12.22a4.73,4.73,0,0,0-.69.06,3.73,3.73,0,0,0-2.45,3.14c-.17,1.49-.48,3.26,1,4.14a6.36,6.36,0,0,0,3.53.46c.73-.06.81-1.91,1.56-2.18a15.73,15.73,0,0,1,5.22-.1.37.37,0,0,1,.06.43.32.32,0,0,1-.12.17h0A43.18,43.18,0,0,0,10.23,44c-1.34,1.73-3,3.43-3.64,5.43C2.86,61.06,11.08,72.79,25.54,71a13.28,13.28,0,0,0,2.67-.62l.08,0a1.83,1.83,0,0,1,.46-.13,2.28,2.28,0,0,1,.38-.16l.1,0a14,14,0,0,0,3.55-2,4.07,4.07,0,0,0,.63-.42l1.4-1.13.09-.08.06-.05.16-.15,0,0a18.5,18.5,0,0,0,3.52-3.42,1.27,1.27,0,0,0,.25-.6C39.19,61.42,38.54,60.75,36.83,59.46Z"/><path class="cls-1" d="M686.8,70.27a1.35,1.35,0,0,1-1.24-1.7,10.91,10.91,0,0,1,.66-1.92A27.7,27.7,0,0,0,688,46.71c-1.91-7-3.94-7.69-10.79-3.17-8.26,6.16-5.87,4.94-5.3,14.43a13.08,13.08,0,0,1,.18,3.46c.05,5.87-.92,7.22-6.8,9.53-.18-.13-.51-.25-.52-.39C664.31,66,663,40,663,35.43c0-2.17.06-5.14.06-7.3a1.38,1.38,0,0,0-.66-1.17c-.74-.46-1.48.65-2.14-.5.36-2.44,5-7.35,9.28-6.72a1.07,1.07,0,0,1,.89,1l.48,22.7c3.37-2.62,6.28-5,9.34-7.22,5-3.57,11.85-2.64,15,4.77,3.74,8.9,1.2,16.69-3.23,24.31a20.64,20.64,0,0,1-2.44,3.31C688.85,69.44,688.13,70.31,686.8,70.27Z"/><path class="cls-1" d="M725.49,43.91a1.49,1.49,0,0,1-1.67-.74c-1.83-3.37-4.43-5.06-8.17-4.56-4.37.58-7.24,3.65-8.77,9.33a1.23,1.23,0,0,0,1,1.54c2.85.37,5.72,0,8.55,0,3.18.05,6.35,0,9.48,0a.91.91,0,0,1,.8.49c.72,1.38.71,2.58-.52,3.42-1.69,1.16-3.13,3.42-5.77,1.88-4.14-2.42-8.41-.7-12.64-.81a1,1,0,0,0-1,1.07,11.59,11.59,0,0,0,15.1,10.17c1.7-.48,3.37-1.17,5.24-.79a1.65,1.65,0,0,1,1.35,1.51,2.08,2.08,0,0,1-1.61,2c-8.5,3.18-21.39,4.56-26-6.77-6.35-15.53,9.54-32.21,26.14-25.18a7.51,7.51,0,0,1,1.65,1c2.91,2.24,2.62,4.44-.76,5.7A22.06,22.06,0,0,1,725.49,43.91Z"/><path class="cls-1" d="M656.57,59.46c-2.7,4-6.54,5.78-10.87,6.65a10.86,10.86,0,0,1-12.87-8.35c-.88-3.55.44-6.69,1.84-9.69,2.78-6,5.87-8.86,13-8.15a46.15,46.15,0,0,1,5.4,1.22c.68.15,1.38.27,2.36.45a.38.38,0,0,0,.33-.36l.74-6.53v0a.79.79,0,0,0-.33-.13,23.44,23.44,0,0,0-3.57-.32c-3.46.16-6.86-.17-10.33,0-5.67.27-11.45,0-17.12.22a4.73,4.73,0,0,0-.69.06A3.73,3.73,0,0,0,622,37.65c-.17,1.49-.48,3.26,1,4.14a6.36,6.36,0,0,0,3.53.46c.73-.06.81-1.91,1.56-2.18a15.73,15.73,0,0,1,5.22-.1.37.37,0,0,1,.06.43.32.32,0,0,1-.12.17h0A43.18,43.18,0,0,0,630,44c-1.34,1.73-3,3.43-3.64,5.43-3.73,11.61,4.49,23.34,19,21.51a13.28,13.28,0,0,0,2.67-.62l.08,0a1.83,1.83,0,0,1,.46-.13,2.28,2.28,0,0,1,.38-.16l.1,0a14,14,0,0,0,3.55-2,4.07,4.07,0,0,0,.63-.42l1.4-1.13.09-.08.06-.05.16-.15,0,0a18.5,18.5,0,0,0,3.52-3.42,1.27,1.27,0,0,0,.25-.6C658.92,61.42,658.28,60.75,656.57,59.46Z"/><path class="cls-1" d="M472,71a50.22,50.22,0,0,1-8.75,0A1.35,1.35,0,0,1,462,69.35c1.87-7.39.42-33.37.24-39.15,0-1.56-.5-2.53-2.21-3-1.51-.42-1.79-1.92-.57-2.51,3.31-1.62,6.74-3,10.15-4.38a.43.43,0,0,1,.22,0,1.58,1.58,0,0,1,1.31,1.45c.09.9.18,1.84.18,2.78q0,18.45,0,36.89c0,2.56-.15,5.1,1.66,7.28a1.48,1.48,0,0,1,.2,1A1.4,1.4,0,0,1,472,71Z"/><path class="cls-1" d="M790.65,25.22c2.81-1.44,5.34-3.06,8.42-4a.84.84,0,0,1,1.08.71c.32,3.28,1.21,6.17.52,9.31a28.44,28.44,0,0,0-.16,6.93c.09,2.65,1,20.91,1.21,27.39,0,1-.07,2-.15,3.19a.83.83,0,0,1-.83.77h-8a.83.83,0,0,1-.75-1.19c2.17-4.3.78-24,.64-29.55a70.63,70.63,0,0,0-.79-9,12.22,12.22,0,0,0-1.53-3.43A.84.84,0,0,1,790.65,25.22Z"/><path class="cls-1" d="M302.24,30.79c-3.55-6.69-10.1-11.55-18.89-11.35-11.38.26-19.58,9-20.9,15.84-1.09,5.64-.32,11.32,3.24,15.94,5.54,7.2,12.93,9.88,22.1,8.3C301.55,57.15,307.71,42,302.24,30.79Zm-9.83,18.38a15.29,15.29,0,0,1-5.12,5.5,6.85,6.85,0,0,1-7,.42c-5.68-2.69-7.7-7.67-8.33-13.49a13.54,13.54,0,0,1,0-1.73,17,17,0,0,1,6.13-14.16c3.52-3.14,7-3,10.61-.1C295.11,30.64,296.51,42.26,292.42,49.17Z"/></g></g></g></svg>